<mxfile host="app.diagrams.net" modified="2022-05-11T22:56:51.516Z" agent="5.0 (Windows NT 10.0; Win64; x64) AppleWebKit/537.36 (KHTML, like Gecko) Chrome/101.0.4951.64 Safari/537.36" etag="whoK0_NgN3t-nmXoU6yg" version="17.4.0" type="github">
  <diagram id="c8TGdQec6tF7wrgIHofe" name="Page-1">
    <mxGraphModel dx="1422" dy="737" grid="1" gridSize="10" guides="1" tooltips="1" connect="1" arrows="1" fold="1" page="1" pageScale="1" pageWidth="827" pageHeight="1169" math="0" shadow="0">
      <root>
        <mxCell id="0" />
        <mxCell id="1" parent="0" />
        <mxCell id="ArzWBIrQ2WOgxDdFeZIo-14" style="rounded=0;orthogonalLoop=1;jettySize=auto;html=1;endArrow=none;endFill=0;" parent="1" source="ArzWBIrQ2WOgxDdFeZIo-2" target="ArzWBIrQ2WOgxDdFeZIo-6" edge="1">
          <mxGeometry relative="1" as="geometry" />
        </mxCell>
        <mxCell id="ArzWBIrQ2WOgxDdFeZIo-16" style="edgeStyle=none;rounded=0;orthogonalLoop=1;jettySize=auto;html=1;endArrow=none;endFill=0;" parent="1" source="ArzWBIrQ2WOgxDdFeZIo-2" target="ArzWBIrQ2WOgxDdFeZIo-8" edge="1">
          <mxGeometry relative="1" as="geometry" />
        </mxCell>
        <mxCell id="ArzWBIrQ2WOgxDdFeZIo-17" style="edgeStyle=none;rounded=0;orthogonalLoop=1;jettySize=auto;html=1;endArrow=none;endFill=0;" parent="1" source="ArzWBIrQ2WOgxDdFeZIo-2" target="ArzWBIrQ2WOgxDdFeZIo-9" edge="1">
          <mxGeometry relative="1" as="geometry" />
        </mxCell>
        <mxCell id="ArzWBIrQ2WOgxDdFeZIo-19" style="edgeStyle=none;rounded=0;orthogonalLoop=1;jettySize=auto;html=1;endArrow=none;endFill=0;" parent="1" source="ArzWBIrQ2WOgxDdFeZIo-2" target="ArzWBIrQ2WOgxDdFeZIo-13" edge="1">
          <mxGeometry relative="1" as="geometry" />
        </mxCell>
        <mxCell id="ArzWBIrQ2WOgxDdFeZIo-2" value="Cliente" style="shape=umlActor;verticalLabelPosition=bottom;verticalAlign=top;html=1;outlineConnect=0;" parent="1" vertex="1">
          <mxGeometry x="390" y="320" width="30" height="60" as="geometry" />
        </mxCell>
        <mxCell id="ArzWBIrQ2WOgxDdFeZIo-21" style="edgeStyle=none;rounded=0;orthogonalLoop=1;jettySize=auto;html=1;endArrow=none;endFill=0;entryX=0.5;entryY=0;entryDx=0;entryDy=0;" parent="1" source="ArzWBIrQ2WOgxDdFeZIo-3" target="ArzWBIrQ2WOgxDdFeZIo-8" edge="1">
          <mxGeometry relative="1" as="geometry" />
        </mxCell>
        <mxCell id="ArzWBIrQ2WOgxDdFeZIo-23" style="edgeStyle=none;rounded=0;orthogonalLoop=1;jettySize=auto;html=1;entryX=0.5;entryY=0;entryDx=0;entryDy=0;endArrow=none;endFill=0;" parent="1" source="ArzWBIrQ2WOgxDdFeZIo-3" target="ArzWBIrQ2WOgxDdFeZIo-9" edge="1">
          <mxGeometry relative="1" as="geometry" />
        </mxCell>
        <mxCell id="ArzWBIrQ2WOgxDdFeZIo-27" style="edgeStyle=none;rounded=0;orthogonalLoop=1;jettySize=auto;html=1;endArrow=none;endFill=0;" parent="1" source="ArzWBIrQ2WOgxDdFeZIo-3" target="ArzWBIrQ2WOgxDdFeZIo-6" edge="1">
          <mxGeometry relative="1" as="geometry" />
        </mxCell>
        <mxCell id="ArzWBIrQ2WOgxDdFeZIo-3" value="Broker" style="shape=umlActor;verticalLabelPosition=top;verticalAlign=bottom;html=1;outlineConnect=0;labelPosition=center;align=center;" parent="1" vertex="1">
          <mxGeometry x="390" y="50" width="30" height="60" as="geometry" />
        </mxCell>
        <mxCell id="ArzWBIrQ2WOgxDdFeZIo-20" style="edgeStyle=none;rounded=0;orthogonalLoop=1;jettySize=auto;html=1;endArrow=none;endFill=0;" parent="1" source="ArzWBIrQ2WOgxDdFeZIo-4" target="ArzWBIrQ2WOgxDdFeZIo-13" edge="1">
          <mxGeometry relative="1" as="geometry" />
        </mxCell>
        <mxCell id="ArzWBIrQ2WOgxDdFeZIo-4" value="Banco do Cliente" style="shape=umlActor;verticalLabelPosition=bottom;verticalAlign=top;html=1;outlineConnect=0;" parent="1" vertex="1">
          <mxGeometry x="710" y="320" width="30" height="60" as="geometry" />
        </mxCell>
        <mxCell id="ArzWBIrQ2WOgxDdFeZIo-6" value="Cadastrar-se" style="ellipse;whiteSpace=wrap;html=1;" parent="1" vertex="1">
          <mxGeometry x="355" y="200" width="100" height="50" as="geometry" />
        </mxCell>
        <mxCell id="ArzWBIrQ2WOgxDdFeZIo-8" value="Cancelar OC/OV" style="ellipse;whiteSpace=wrap;html=1;" parent="1" vertex="1">
          <mxGeometry x="470" y="200" width="100" height="50" as="geometry" />
        </mxCell>
        <mxCell id="ArzWBIrQ2WOgxDdFeZIo-9" value="Criar OC/OV" style="ellipse;whiteSpace=wrap;html=1;" parent="1" vertex="1">
          <mxGeometry x="240" y="200" width="100" height="50" as="geometry" />
        </mxCell>
        <mxCell id="ArzWBIrQ2WOgxDdFeZIo-28" style="edgeStyle=none;rounded=0;orthogonalLoop=1;jettySize=auto;html=1;endArrow=none;endFill=0;" parent="1" source="ArzWBIrQ2WOgxDdFeZIo-11" target="ArzWBIrQ2WOgxDdFeZIo-2" edge="1">
          <mxGeometry relative="1" as="geometry" />
        </mxCell>
        <mxCell id="ArzWBIrQ2WOgxDdFeZIo-11" value="Gerar relatório individual" style="ellipse;whiteSpace=wrap;html=1;" parent="1" vertex="1">
          <mxGeometry x="140" y="325" width="100" height="50" as="geometry" />
        </mxCell>
        <mxCell id="ArzWBIrQ2WOgxDdFeZIo-13" value="Transferir fundos" style="ellipse;whiteSpace=wrap;html=1;" parent="1" vertex="1">
          <mxGeometry x="520" y="325" width="100" height="50" as="geometry" />
        </mxCell>
        <mxCell id="ArzWBIrQ2WOgxDdFeZIo-29" value="Gerar relatório &lt;br&gt;de posições" style="ellipse;whiteSpace=wrap;html=1;" parent="1" vertex="1">
          <mxGeometry x="140" y="405" width="100" height="50" as="geometry" />
        </mxCell>
        <mxCell id="ArzWBIrQ2WOgxDdFeZIo-31" style="edgeStyle=none;rounded=0;orthogonalLoop=1;jettySize=auto;html=1;endArrow=none;endFill=0;" parent="1" source="ArzWBIrQ2WOgxDdFeZIo-30" target="ArzWBIrQ2WOgxDdFeZIo-29" edge="1">
          <mxGeometry relative="1" as="geometry" />
        </mxCell>
        <mxCell id="ArzWBIrQ2WOgxDdFeZIo-30" value="Auditoria" style="shape=umlActor;verticalLabelPosition=bottom;verticalAlign=top;html=1;outlineConnect=0;" parent="1" vertex="1">
          <mxGeometry x="40" y="400" width="30" height="60" as="geometry" />
        </mxCell>
      </root>
    </mxGraphModel>
  </diagram>
</mxfile>
